<svg xmlns="http://www.w3.org/2000/svg" width="280" height="56" viewBox="0 0 200 40">
  <defs>
    <linearGradient id="bg-gradient-lg" x1="0%" y1="0%" x2="100%" y2="100%">
      <stop offset="0%" style="stop-color:#1e293b"/>
      <stop offset="100%" style="stop-color:#0f172a"/>
    </linearGradient>
  </defs>
  <!-- Background -->
  <rect width="200" height="40" rx="6" fill="url(#bg-gradient-lg)"/>
  <!-- Border highlight -->
  <rect x="0.5" y="0.5" width="199" height="39" rx="5.5" fill="none" stroke="rgba(255,255,255,0.1)" stroke-width="1"/>
  <!-- Rocket icon -->
  <g transform="translate(16, 10)">
    <path d="M12 2L8 6H4L2 12L8 10V14L10 16L12 14L14 16L16 14V10L22 12L20 6H16L12 2Z" fill="none" stroke="#6366f1" stroke-width="1.5" stroke-linecap="round" stroke-linejoin="round"/>
    <path d="M5 17L3 19" stroke="#6366f1" stroke-width="1.5" stroke-linecap="round"/>
    <path d="M9 17L7 21" stroke="#6366f1" stroke-width="1.5" stroke-linecap="round"/>
    <path d="M15 17L17 21" stroke="#6366f1" stroke-width="1.5" stroke-linecap="round"/>
    <path d="M19 17L21 19" stroke="#6366f1" stroke-width="1.5" stroke-linecap="round"/>
  </g>
  <!-- Text -->
  <text x="105" y="25" text-anchor="middle" fill="white" font-family="-apple-system, BlinkMacSystemFont, 'Segoe UI', Roboto, 'Helvetica Neue', sans-serif" font-size="13" font-weight="500">Deploy to Stackform</text>
</svg>
